# xmcd
#
# Track frame offsets:
#	150
#	14019
#	28434
#	42920
#	59198
#	74313
#	93358
#	110334
#	126638
#	150914
#	167285
#	185474
#	202544
#	219007
#	234425
#	252527
#	271685
#	287050
#	303699
#	327763
#
# Disc length: 4591 seconds
#
# Revision: 0
# Processed by: cddbd v1.5PL3 Copyright (c) Steve Scherf et al.
# Submitted via: dBpowerAMP V4.0
#
DISCID=1b11ed14
DTITLE=Alabama - 41 And Counting
DYEAR=1900
DGENRE=
TTITLE0=Tennessee River
TTITLE1=Why Lady Why
TTITLE2=Old Flame
TTITLE3=Feels So Right
TTITLE4=Love In The First Degree
TTITLE5=Mountain Music
TTITLE6=Take Me Down
TTITLE7=Close Enough To Perfect
TTITLE8=Dixieland Delight
TTITLE9=The Closer You Get
TTITLE10=Lady Down On Love
TTITLE11=Roll On
TTITLE12=When We Make Love
TTITLE13=If You're Gonna Play In Texas
TTITLE14=There's A Fire In The Night
TTITLE15=There's No Way
TTITLE16=40 Hour Week (For A Livin)
TTITLE17=Can't Keep A good Man Down
TTITLE18=She And I
TTITLE19=Touch Me When Were Dancing
EXTD=
EXTT0=
EXTT1=
EXTT2=
EXTT3=
EXTT4=
EXTT5=
EXTT6=
EXTT7=
EXTT8=
EXTT9=
EXTT10=
EXTT11=
EXTT12=
EXTT13=
EXTT14=
EXTT15=
EXTT16=
EXTT17=
EXTT18=
EXTT19=
PLAYORDER=
